<svg xmlns="http://www.w3.org/2000/svg" viewBox="0 0 1280 800" role="img" aria-label="Illustration activite touristique a Erezee"><defs><linearGradient id="sky" x1="0" y1="0" x2="1" y2="1"><stop offset="0" stop-color="#e3f0e7"/><stop offset="0.48" stop-color="#cfa966"/><stop offset="1" stop-color="#102f2b"/></linearGradient><linearGradient id="meadow" x1="0" y1="0" x2="0" y2="1"><stop offset="0" stop-color="#638b65"/><stop offset="1" stop-color="#11362f"/></linearGradient><filter id="grain"><feTurbulence type="fractalNoise" baseFrequency="0.68" numOctaves="3"/><feComponentTransfer><feFuncA type="table" tableValues="0 0.11"/></feComponentTransfer></filter></defs><rect width="1280" height="800" fill="url(#sky)"/><rect width="1280" height="800" filter="url(#grain)" opacity="0.36"/><path d="M0 470 C130 390 274 438 425 360 C612 263 768 350 952 286 C1110 231 1188 258 1280 224 V800 H0 Z" fill="#2e594d" opacity="0.86"/><path d="M0 588 C180 510 330 552 504 488 C690 420 804 500 1008 426 C1138 380 1214 404 1280 380 V800 H0 Z" fill="url(#meadow)"/><path d="M125 676 C310 560 498 610 674 526 C820 456 952 496 1122 404" fill="none" stroke="#f1cc74" stroke-width="18" stroke-linecap="round"/><g fill="#102921"><path d="M198 430 h128 v106 h-128z"/><path d="M178 430 l84 -72 88 72z"/><rect x="238" y="470" width="30" height="66" fill="#efd184"/><path d="M380 392 h160 v130 h-160z"/><path d="M354 392 l108 -90 112 90z"/><rect x="420" y="436" width="34" height="86" fill="#efd184"/><rect x="482" y="430" width="34" height="38" fill="#efd184"/><path d="M596 428 h132 v96 h-132z"/><path d="M578 428 l84 -68 86 68z"/></g><g transform="translate(820 328)"><path d="M0 58 h210" stroke="#f2d584" stroke-width="12" stroke-linecap="round"/><path d="M62 0 v176" stroke="#102921" stroke-width="16" stroke-linecap="round"/><path d="M62 18 h150 l-34 38 h-116z" fill="#f2d584"/><path d="M62 82 h-154 l34 38 h120z" fill="#f2d584"/><path d="M62 146 h128 l-28 38 h-100z" fill="#f2d584"/></g><g fill="#173a31"><path d="M88 470 l28 -82 30 82z"/><path d="M1028 458 l34 -102 37 102z"/><path d="M1084 430 l30 -88 32 88z"/><path d="M1140 482 l24 -72 26 72z"/></g><g stroke="#f3d781" stroke-width="5" fill="none" opacity="0.7"><path d="M132 230 c36 -22 74 -22 112 0"/><path d="M666 188 c30 -18 62 -18 94 0"/><path d="M980 228 c34 -22 72 -22 108 0"/></g></svg>