<svg xmlns="http://www.w3.org/2000/svg" viewBox="0 0 1280 800" role="img" aria-label="Illustration chasse au tresor en Ardenne"><defs><linearGradient id="bg" x1="0" y1="0" x2="1" y2="1"><stop offset="0" stop-color="#e9f1e7"/><stop offset="0.52" stop-color="#d9b76d"/><stop offset="1" stop-color="#0f302b"/></linearGradient><linearGradient id="water" x1="0" y1="0" x2="1" y2="0"><stop offset="0" stop-color="#4f8b83"/><stop offset="1" stop-color="#193e37"/></linearGradient><filter id="grain"><feTurbulence type="fractalNoise" baseFrequency="0.85" numOctaves="2"/><feComponentTransfer><feFuncA type="table" tableValues="0 0.12"/></feComponentTransfer></filter></defs><rect width="1280" height="800" fill="url(#bg)"/><rect width="1280" height="800" filter="url(#grain)" opacity="0.34"/><path d="M0 520 C190 410 302 474 470 392 C650 304 804 386 984 320 C1120 270 1198 300 1280 265 V800 H0 Z" fill="#335f50" opacity="0.88"/><path d="M0 620 C210 548 392 604 582 530 C750 466 920 504 1280 402 V800 H0 Z" fill="#153c33"/><path d="M-40 684 C160 590 300 658 454 588 C610 517 728 590 885 520 C1040 452 1124 492 1320 430" fill="none" stroke="url(#water)" stroke-width="44" stroke-linecap="round" opacity="0.95"/><path d="M172 570 l396 -102" stroke="#102921" stroke-width="10" stroke-linecap="round"/><path d="M188 620 l396 -102" stroke="#102921" stroke-width="10" stroke-linecap="round"/><g stroke="#f1cc72" stroke-width="7" stroke-linecap="round"><path d="M222 582 l30 50"/><path d="M312 558 l30 50"/><path d="M402 535 l30 50"/><path d="M492 512 l30 50"/></g><g transform="translate(720 270) rotate(-8)"><path d="M0 0 h282 l42 250 h-284 z" fill="#f2d48a"/><path d="M36 34 c70 28 138 -28 214 2" fill="none" stroke="#13372f" stroke-width="10" opacity="0.7"/><path d="M52 92 c80 35 140 -35 222 10" fill="none" stroke="#13372f" stroke-width="8" opacity="0.55"/><path d="M72 160 c55 20 100 -20 165 8" fill="none" stroke="#13372f" stroke-width="8" opacity="0.5"/><circle cx="226" cy="174" r="26" fill="none" stroke="#b17227" stroke-width="9"/><path d="M226 136 v76 M188 174 h76" stroke="#b17227" stroke-width="7"/></g><g fill="#102921"><circle cx="630" cy="405" r="38"/><path d="M604 440 h54 l22 110 h-98z"/></g><path d="M648 466 C704 425 744 390 792 350" fill="none" stroke="#f4d884" stroke-width="10" stroke-linecap="round"/><g fill="#173b31"><path d="M98 430 l28 -76 29 76z"/><path d="M1150 382 l34 -94 35 94z"/><path d="M1086 430 l25 -70 27 70z"/></g></svg>